# Export of RayTrace
# from Aaro4130 OBJ Exporter v2.0
mtllib plane.mtl
g Plane
v -5 -1.110223E-16 5
v -4 -1.110223E-16 5
v -3 -1.110223E-16 5
v -2 -1.110223E-16 5
v -0.9999999 -1.110223E-16 5
v 0 -1.110223E-16 5
v 1 -1.110223E-16 5
v 2 -1.110223E-16 5
v 3 -1.110223E-16 5
v 4 -1.110223E-16 5
v 5 -1.110223E-16 5
v -5 -8.881784E-17 4
v -4 -8.881784E-17 4
v -3 -8.881784E-17 4
v -2 -8.881784E-17 4
v -0.9999999 -8.881784E-17 4
v 0 -8.881784E-17 4
v 1 -8.881784E-17 4
v 2 -8.881784E-17 4
v 3 -8.881784E-17 4
v 4 -8.881784E-17 4
v 5 -8.881784E-17 4
v -5 -6.661338E-17 3
v -4 -6.661338E-17 3
v -3 -6.661338E-17 3
v -2 -6.661338E-17 3
v -0.9999999 -6.661338E-17 3
v 0 -6.661338E-17 3
v 1 -6.661338E-17 3
v 2 -6.661338E-17 3
v 3 -6.661338E-17 3
v 4 -6.661338E-17 3
v 5 -6.661338E-17 3
v -5 -4.440892E-17 2
v -4 -4.440892E-17 2
v -3 -4.440892E-17 2
v -2 -4.440892E-17 2
v -0.9999999 -4.440892E-17 2
v 0 -4.440892E-17 2
v 1 -4.440892E-17 2
v 2 -4.440892E-17 2
v 3 -4.440892E-17 2
v 4 -4.440892E-17 2
v 5 -4.440892E-17 2
v -5 -2.220446E-17 0.9999999
v -4 -2.220446E-17 0.9999999
v -3 -2.220446E-17 0.9999999
v -2 -2.220446E-17 0.9999999
v -0.9999999 -2.220446E-17 0.9999999
v 0 -2.220446E-17 0.9999999
v 1 -2.220446E-17 0.9999999
v 2 -2.220446E-17 0.9999999
v 3 -2.220446E-17 0.9999999
v 4 -2.220446E-17 0.9999999
v 5 -2.220446E-17 0.9999999
v -5 0 0
v -4 0 0
v -3 0 0
v -2 0 0
v -0.9999999 0 0
v 0 0 0
v 1 0 0
v 2 0 0
v 3 0 0
v 4 0 0
v 5 0 0
v -5 2.220447E-17 -1
v -4 2.220447E-17 -1
v -3 2.220447E-17 -1
v -2 2.220447E-17 -1
v -0.9999999 2.220447E-17 -1
v 0 2.220447E-17 -1
v 1 2.220447E-17 -1
v 2 2.220447E-17 -1
v 3 2.220447E-17 -1
v 4 2.220447E-17 -1
v 5 2.220447E-17 -1
v -5 4.440892E-17 -2
v -4 4.440892E-17 -2
v -3 4.440892E-17 -2
v -2 4.440892E-17 -2
v -0.9999999 4.440892E-17 -2
v 0 4.440892E-17 -2
v 1 4.440892E-17 -2
v 2 4.440892E-17 -2
v 3 4.440892E-17 -2
v 4 4.440892E-17 -2
v 5 4.440892E-17 -2
v -5 6.661338E-17 -3
v -4 6.661338E-17 -3
v -3 6.661338E-17 -3
v -2 6.661338E-17 -3
v -0.9999999 6.661338E-17 -3
v 0 6.661338E-17 -3
v 1 6.661338E-17 -3
v 2 6.661338E-17 -3
v 3 6.661338E-17 -3
v 4 6.661338E-17 -3
v 5 6.661338E-17 -3
v -5 8.881785E-17 -4
v -4 8.881785E-17 -4
v -3 8.881785E-17 -4
v -2 8.881785E-17 -4
v -0.9999999 8.881785E-17 -4
v 0 8.881785E-17 -4
v 1 8.881785E-17 -4
v 2 8.881785E-17 -4
v 3 8.881785E-17 -4
v 4 8.881785E-17 -4
v 5 8.881785E-17 -4
v -5 1.110223E-16 -5
v -4 1.110223E-16 -5
v -3 1.110223E-16 -5
v -2 1.110223E-16 -5
v -0.9999999 1.110223E-16 -5
v 0 1.110223E-16 -5
v 1 1.110223E-16 -5
v 2 1.110223E-16 -5
v 3 1.110223E-16 -5
v 4 1.110223E-16 -5
v 5 1.110223E-16 -5
vn 0 0.5773503 0
vn 0 0.5773503 0
vn 0 0.5773503 0
vn 0 0.5773503 0
vn 0 0.5773503 0
vn 0 0.5773503 0
vn 0 0.5773503 0
vn 0 0.5773503 0
vn 0 0.5773503 0
vn 0 0.5773503 0
vn 0 0.5773503 0
vn 0 0.5773503 0
vn 0 0.5773503 0
vn 0 0.5773503 0
vn 0 0.5773503 0
vn 0 0.5773503 0
vn 0 0.5773503 0
vn 0 0.5773503 0
vn 0 0.5773503 0
vn 0 0.5773503 0
vn 0 0.5773503 0
vn 0 0.5773503 0
vn 0 0.5773503 0
vn 0 0.5773503 0
vn 0 0.5773503 0
vn 0 0.5773503 0
vn 0 0.5773503 0
vn 0 0.5773503 0
vn 0 0.5773503 0
vn 0 0.5773503 0
vn 0 0.5773503 0
vn 0 0.5773503 0
vn 0 0.5773503 0
vn 0 0.5773503 0
vn 0 0.5773503 0
vn 0 0.5773503 0
vn 0 0.5773503 0
vn 0 0.5773503 0
vn 0 0.5773503 0
vn 0 0.5773503 0
vn 0 0.5773503 0
vn 0 0.5773503 0
vn 0 0.5773503 0
vn 0 0.5773503 0
vn 0 0.5773503 0
vn 0 0.5773503 0
vn 0 0.5773503 0
vn 0 0.5773503 0
vn 0 0.5773503 0
vn 0 0.5773503 0
vn 0 0.5773503 0
vn 0 0.5773503 0
vn 0 0.5773503 0
vn 0 0.5773503 0
vn 0 0.5773503 0
vn 0 0.5773503 0
vn 0 0.5773503 0
vn 0 0.5773503 0
vn 0 0.5773503 0
vn 0 0.5773503 0
vn 0 0.5773503 0
vn 0 0.5773503 0
vn 0 0.5773503 0
vn 0 0.5773503 0
vn 0 0.5773503 0
vn 0 0.5773503 0
vn 0 0.5773503 0
vn 0 0.5773503 0
vn 0 0.5773503 0
vn 0 0.5773503 0
vn 0 0.5773503 0
vn 0 0.5773503 0
vn 0 0.5773503 0
vn 0 0.5773503 0
vn 0 0.5773503 0
vn 0 0.5773503 0
vn 0 0.5773503 0
vn 0 0.5773503 0
vn 0 0.5773503 0
vn 0 0.5773503 0
vn 0 0.5773503 0
vn 0 0.5773503 0
vn 0 0.5773503 0
vn 0 0.5773503 0
vn 0 0.5773503 0
vn 0 0.5773503 0
vn 0 0.5773503 0
vn 0 0.5773503 0
vn 0 0.5773503 0
vn 0 0.5773503 0
vn 0 0.5773503 0
vn 0 0.5773503 0
vn 0 0.5773503 0
vn 0 0.5773503 0
vn 0 0.5773503 0
vn 0 0.5773503 0
vn 0 0.5773503 0
vn 0 0.5773503 0
vn 0 0.5773503 0
vn 0 0.5773503 0
vn 0 0.5773503 0
vn 0 0.5773503 0
vn 0 0.5773503 0
vn 0 0.5773503 0
vn 0 0.5773503 0
vn 0 0.5773503 0
vn 0 0.5773503 0
vn 0 0.5773503 0
vn 0 0.5773503 0
vn 0 0.5773503 0
vn 0 0.5773503 0
vn 0 0.5773503 0
vn 0 0.5773503 0
vn 0 0.5773503 0
vn 0 0.5773503 0
vn 0 0.5773503 0
vn 0 0.5773503 0
vn 0 0.5773503 0
vn 0 0.5773503 0
vn 0 0.5773503 0
vn 0 0.5773503 0
vt 0 0
vt 0.1 0
vt 0.2 0
vt 0.3 0
vt 0.4 0
vt 0.5 0
vt 0.6 0
vt 0.7 0
vt 0.8 0
vt 0.9 0
vt 1 0
vt 0 0.1
vt 0.1 0.1
vt 0.2 0.1
vt 0.3 0.1
vt 0.4 0.1
vt 0.5 0.1
vt 0.6 0.1
vt 0.7 0.1
vt 0.8 0.1
vt 0.9 0.1
vt 1 0.1
vt 0 0.2
vt 0.1 0.2
vt 0.2 0.2
vt 0.3 0.2
vt 0.4 0.2
vt 0.5 0.2
vt 0.6 0.2
vt 0.7 0.2
vt 0.8 0.2
vt 0.9 0.2
vt 1 0.2
vt 0 0.3
vt 0.1 0.3
vt 0.2 0.3
vt 0.3 0.3
vt 0.4 0.3
vt 0.5 0.3
vt 0.6 0.3
vt 0.7 0.3
vt 0.8 0.3
vt 0.9 0.3
vt 1 0.3
vt 0 0.4
vt 0.1 0.4
vt 0.2 0.4
vt 0.3 0.4
vt 0.4 0.4
vt 0.5 0.4
vt 0.6 0.4
vt 0.7 0.4
vt 0.8 0.4
vt 0.9 0.4
vt 1 0.4
vt 0 0.5
vt 0.1 0.5
vt 0.2 0.5
vt 0.3 0.5
vt 0.4 0.5
vt 0.5 0.5
vt 0.6 0.5
vt 0.7 0.5
vt 0.8 0.5
vt 0.9 0.5
vt 1 0.5
vt 0 0.6
vt 0.1 0.6
vt 0.2 0.6
vt 0.3 0.6
vt 0.4 0.6
vt 0.5 0.6
vt 0.6 0.6
vt 0.7 0.6
vt 0.8 0.6
vt 0.9 0.6
vt 1 0.6
vt 0 0.7
vt 0.1 0.7
vt 0.2 0.7
vt 0.3 0.7
vt 0.4 0.7
vt 0.5 0.7
vt 0.6 0.7
vt 0.7 0.7
vt 0.8 0.7
vt 0.9 0.7
vt 1 0.7
vt 0 0.8
vt 0.1 0.8
vt 0.2 0.8
vt 0.3 0.8
vt 0.4 0.8
vt 0.5 0.8
vt 0.6 0.8
vt 0.7 0.8
vt 0.8 0.8
vt 0.9 0.8
vt 1 0.8
vt 0 0.9
vt 0.1 0.9
vt 0.2 0.9
vt 0.3 0.9
vt 0.4 0.9
vt 0.5 0.9
vt 0.6 0.9
vt 0.7 0.9
vt 0.8 0.9
vt 0.9 0.9
vt 1 0.9
vt 0 1
vt 0.1 1
vt 0.2 1
vt 0.3 1
vt 0.4 1
vt 0.5 1
vt 0.6 1
vt 0.7 1
vt 0.8 1
vt 0.9 1
vt 1 1
usemtl Default-Material
f 13/13/13 12/12/12 1/1/1
f 2/2/2 13/13/13 1/1/1
f 14/14/14 13/13/13 2/2/2
f 3/3/3 14/14/14 2/2/2
f 15/15/15 14/14/14 3/3/3
f 4/4/4 15/15/15 3/3/3
f 16/16/16 15/15/15 4/4/4
f 5/5/5 16/16/16 4/4/4
f 17/17/17 16/16/16 5/5/5
f 6/6/6 17/17/17 5/5/5
f 18/18/18 17/17/17 6/6/6
f 7/7/7 18/18/18 6/6/6
f 19/19/19 18/18/18 7/7/7
f 8/8/8 19/19/19 7/7/7
f 20/20/20 19/19/19 8/8/8
f 9/9/9 20/20/20 8/8/8
f 21/21/21 20/20/20 9/9/9
f 10/10/10 21/21/21 9/9/9
f 22/22/22 21/21/21 10/10/10
f 11/11/11 22/22/22 10/10/10
f 16/16/16 27/27/27 15/15/15
f 28/28/28 27/27/27 16/16/16
f 17/17/17 28/28/28 16/16/16
f 29/29/29 28/28/28 17/17/17
f 18/18/18 29/29/29 17/17/17
f 30/30/30 29/29/29 18/18/18
f 19/19/19 30/30/30 18/18/18
f 31/31/31 30/30/30 19/19/19
f 20/20/20 31/31/31 19/19/19
f 32/32/32 31/31/31 20/20/20
f 21/21/21 32/32/32 20/20/20
f 33/33/33 32/32/32 21/21/21
f 22/22/22 33/33/33 21/21/21
f 28/28/28 39/39/39 27/27/27
f 39/39/39 38/38/38 27/27/27
f 27/27/27 38/38/38 26/26/26
f 27/27/27 26/26/26 15/15/15
f 15/15/15 26/26/26 14/14/14
f 26/26/26 25/25/25 14/14/14
f 14/14/14 25/25/25 13/13/13
f 25/25/25 24/24/24 13/13/13
f 13/13/13 24/24/24 12/12/12
f 24/24/24 23/23/23 12/12/12
f 24/24/24 35/35/35 23/23/23
f 35/35/35 34/34/34 23/23/23
f 36/36/36 35/35/35 24/24/24
f 25/25/25 36/36/36 24/24/24
f 37/37/37 36/36/36 25/25/25
f 26/26/26 37/37/37 25/25/25
f 38/38/38 37/37/37 26/26/26
f 33/33/33 44/44/44 32/32/32
f 35/35/35 46/46/46 34/34/34
f 46/46/46 45/45/45 34/34/34
f 47/47/47 46/46/46 35/35/35
f 36/36/36 47/47/47 35/35/35
f 48/48/48 47/47/47 36/36/36
f 37/37/37 48/48/48 36/36/36
f 49/49/49 48/48/48 37/37/37
f 38/38/38 49/49/49 37/37/37
f 50/50/50 49/49/49 38/38/38
f 39/39/39 50/50/50 38/38/38
f 51/51/51 50/50/50 39/39/39
f 40/40/40 51/51/51 39/39/39
f 40/40/40 39/39/39 28/28/28
f 29/29/29 40/40/40 28/28/28
f 41/41/41 40/40/40 29/29/29
f 30/30/30 41/41/41 29/29/29
f 42/42/42 41/41/41 30/30/30
f 31/31/31 42/42/42 30/30/30
f 43/43/43 42/42/42 31/31/31
f 32/32/32 43/43/43 31/31/31
f 44/44/44 43/43/43 32/32/32
f 52/52/52 51/51/51 40/40/40
f 41/41/41 52/52/52 40/40/40
f 53/53/53 52/52/52 41/41/41
f 42/42/42 53/53/53 41/41/41
f 54/54/54 53/53/53 42/42/42
f 43/43/43 54/54/54 42/42/42
f 55/55/55 54/54/54 43/43/43
f 44/44/44 55/55/55 43/43/43
f 52/52/52 63/63/63 51/51/51
f 63/63/63 62/62/62 51/51/51
f 64/64/64 63/63/63 52/52/52
f 53/53/53 64/64/64 52/52/52
f 65/65/65 64/64/64 53/53/53
f 54/54/54 65/65/65 53/53/53
f 66/66/66 65/65/65 54/54/54
f 55/55/55 66/66/66 54/54/54
f 63/63/63 74/74/74 62/62/62
f 74/74/74 73/73/73 62/62/62
f 62/62/62 73/73/73 61/61/61
f 62/62/62 61/61/61 50/50/50
f 50/50/50 61/61/61 49/49/49
f 61/61/61 60/60/60 49/49/49
f 49/49/49 60/60/60 48/48/48
f 60/60/60 59/59/59 48/48/48
f 48/48/48 59/59/59 47/47/47
f 59/59/59 58/58/58 47/47/47
f 47/47/47 58/58/58 46/46/46
f 58/58/58 57/57/57 46/46/46
f 46/46/46 57/57/57 45/45/45
f 57/57/57 56/56/56 45/45/45
f 57/57/57 68/68/68 56/56/56
f 68/68/68 67/67/67 56/56/56
f 69/69/69 68/68/68 57/57/57
f 58/58/58 69/69/69 57/57/57
f 70/70/70 69/69/69 58/58/58
f 59/59/59 70/70/70 58/58/58
f 71/71/71 70/70/70 59/59/59
f 60/60/60 71/71/71 59/59/59
f 72/72/72 71/71/71 60/60/60
f 61/61/61 72/72/72 60/60/60
f 73/73/73 72/72/72 61/61/61
f 68/68/68 79/79/79 67/67/67
f 79/79/79 78/78/78 67/67/67
f 80/80/80 79/79/79 68/68/68
f 69/69/69 80/80/80 68/68/68
f 81/81/81 80/80/80 69/69/69
f 70/70/70 81/81/81 69/69/69
f 82/82/82 81/81/81 70/70/70
f 71/71/71 82/82/82 70/70/70
f 83/83/83 82/82/82 71/71/71
f 72/72/72 83/83/83 71/71/71
f 84/84/84 83/83/83 72/72/72
f 73/73/73 84/84/84 72/72/72
f 85/85/85 84/84/84 73/73/73
f 74/74/74 85/85/85 73/73/73
f 86/86/86 85/85/85 74/74/74
f 75/75/75 86/86/86 74/74/74
f 75/75/75 74/74/74 63/63/63
f 64/64/64 75/75/75 63/63/63
f 76/76/76 75/75/75 64/64/64
f 65/65/65 76/76/76 64/64/64
f 77/77/77 76/76/76 65/65/65
f 66/66/66 77/77/77 65/65/65
f 87/87/87 86/86/86 75/75/75
f 76/76/76 87/87/87 75/75/75
f 88/88/88 87/87/87 76/76/76
f 77/77/77 88/88/88 76/76/76
f 82/82/82 93/93/93 81/81/81
f 94/94/94 93/93/93 82/82/82
f 83/83/83 94/94/94 82/82/82
f 95/95/95 94/94/94 83/83/83
f 84/84/84 95/95/95 83/83/83
f 96/96/96 95/95/95 84/84/84
f 85/85/85 96/96/96 84/84/84
f 97/97/97 96/96/96 85/85/85
f 86/86/86 97/97/97 85/85/85
f 98/98/98 97/97/97 86/86/86
f 87/87/87 98/98/98 86/86/86
f 99/99/99 98/98/98 87/87/87
f 88/88/88 99/99/99 87/87/87
f 94/94/94 105/105/105 93/93/93
f 105/105/105 104/104/104 93/93/93
f 93/93/93 104/104/104 92/92/92
f 93/93/93 92/92/92 81/81/81
f 81/81/81 92/92/92 80/80/80
f 92/92/92 91/91/91 80/80/80
f 80/80/80 91/91/91 79/79/79
f 91/91/91 90/90/90 79/79/79
f 79/79/79 90/90/90 78/78/78
f 90/90/90 89/89/89 78/78/78
f 90/90/90 101/101/101 89/89/89
f 101/101/101 100/100/100 89/89/89
f 102/102/102 101/101/101 90/90/90
f 91/91/91 102/102/102 90/90/90
f 103/103/103 102/102/102 91/91/91
f 92/92/92 103/103/103 91/91/91
f 104/104/104 103/103/103 92/92/92
f 99/99/99 110/110/110 98/98/98
f 101/101/101 112/112/112 100/100/100
f 112/112/112 111/111/111 100/100/100
f 113/113/113 112/112/112 101/101/101
f 102/102/102 113/113/113 101/101/101
f 114/114/114 113/113/113 102/102/102
f 103/103/103 114/114/114 102/102/102
f 115/115/115 114/114/114 103/103/103
f 104/104/104 115/115/115 103/103/103
f 116/116/116 115/115/115 104/104/104
f 105/105/105 116/116/116 104/104/104
f 117/117/117 116/116/116 105/105/105
f 106/106/106 117/117/117 105/105/105
f 106/106/106 105/105/105 94/94/94
f 95/95/95 106/106/106 94/94/94
f 107/107/107 106/106/106 95/95/95
f 96/96/96 107/107/107 95/95/95
f 108/108/108 107/107/107 96/96/96
f 97/97/97 108/108/108 96/96/96
f 109/109/109 108/108/108 97/97/97
f 98/98/98 109/109/109 97/97/97
f 110/110/110 109/109/109 98/98/98
f 118/118/118 117/117/117 106/106/106
f 107/107/107 118/118/118 106/106/106
f 119/119/119 118/118/118 107/107/107
f 108/108/108 119/119/119 107/107/107
f 120/120/120 119/119/119 108/108/108
f 109/109/109 120/120/120 108/108/108
f 121/121/121 120/120/120 109/109/109
f 110/110/110 121/121/121 109/109/109
f 51/51/51 62/62/62 50/50/50
